<?xml version="1.0" standalone="no"?><!DOCTYPE svg PUBLIC "-//W3C//DTD SVG 1.1//EN" "http://www.w3.org/Graphics/SVG/1.1/DTD/svg11.dtd"><svg t="1505786555648" class="icon" style="" viewBox="0 0 1024 1024" version="1.1" xmlns="http://www.w3.org/2000/svg" p-id="14047" xmlns:xlink="http://www.w3.org/1999/xlink" width="200" height="200"><defs><style type="text/css"></style></defs><path d="M920.603 415.218c-12.561 0-22.78 10.212-22.886 22.78v405.91c0 25.237-20.545 45.779-45.779 45.779h-686.34c-25.237 0-45.779-20.43-45.779-45.779v-662.154c0-25.237 20.545-45.779 45.779-45.779h442.073c12.561 0 22.886-10.212 22.886-22.886s-10.212-22.886-22.886-22.886h-446.64c-47.995 0-86.854 38.861-86.854 86.854v671.315c0 47.995 38.861 86.978 86.854 86.978h695.504c47.995 0 86.854-38.977 86.854-86.978v-410.484c0-12.442-10.212-22.653-22.78-22.653v0 0M495.328 708.318l435.145-435.145c25.947-25.829 23.482-70.425-5.283-99.196l-41.090-41.206c-28.764-28.867-73.359-31.231-99.196-5.401l-435.145 435.251 145.551 145.667M817.323 159.894c9.863-9.863 26.755-8.927 37.679 1.984l41.090 41.090c10.918 11.037 11.849 27.811 1.984 37.679l-48.254 48.254-80.172-81.342 47.652-47.652M815.671 323.073l-323.619 323.619-80.759-80.759 324.205-324.205 80.172 81.342M349.424 563.476l-44.731 163.865c-1.984 7.153 0.11 14.796 5.283 20.077 5.283 5.17 12.909 7.153 20.077 5.283l163.984-44.731-33.573-33.573-106.461 29.11 28.989-106.461-33.573-33.573M349.424 563.476v0z" p-id="14048" fill="#ffffff"></path></svg>