<?xml version="1.0" standalone="no"?><!DOCTYPE svg PUBLIC "-//W3C//DTD SVG 1.1//EN" "http://www.w3.org/Graphics/SVG/1.1/DTD/svg11.dtd"><svg t="1505728362954" class="icon" style="" viewBox="0 0 1024 1024" version="1.1" xmlns="http://www.w3.org/2000/svg" p-id="9199" xmlns:xlink="http://www.w3.org/1999/xlink" width="200" height="200"><defs><style type="text/css"></style></defs><path d="M89.6 422.4v172.8c0 19.2 12.8 32 25.6 32s25.6-12.8 25.6-32V422.4c0-19.2-12.8-32-25.6-32s-25.6 12.8-25.6 32z m-64-57.6H192c12.8 0 25.6-12.8 25.6-32s-6.4-32-25.6-32H25.6c-12.8 0-25.6 19.2-25.6 32s12.8 32 25.6 32z m198.4 320c0-19.2-12.8-32-25.6-32H25.6c-12.8 0-25.6 12.8-25.6 32s12.8 32 25.6 32H192c19.2 0 32-12.8 32-32z m128-320h339.2c12.8 0 25.6-12.8 25.6-32s-12.8-32-25.6-32H352c-12.8 0-25.6 19.2-25.6 32s12.8 32 25.6 32z m0 172.8h339.2c12.8 0 25.6-12.8 25.6-32s-12.8-32-25.6-32H352c-12.8 6.4-25.6 19.2-25.6 38.4 0 12.8 12.8 25.6 25.6 25.6z m0 179.2h339.2c12.8 0 25.6-12.8 25.6-32s-12.8-32-25.6-32H352c-12.8 0-25.6 12.8-25.6 32s12.8 32 25.6 32z m582.4-320v-192c0-76.8-57.6-140.8-134.4-140.8h-576C147.2 64 89.6 128 89.6 204.8v38.4c0 19.2 12.8 32 25.6 32s25.6-12.8 25.6-32v-38.4c0-44.8 32-83.2 76.8-83.2h582.4c44.8 0 76.8 38.4 76.8 83.2v198.4c-44.8 12.8-76.8 57.6-76.8 108.8 0 51.2 32 96 76.8 115.2v192c0 44.8-32 83.2-76.8 83.2h-576c-44.8 0-76.8-38.4-76.8-83.2v-44.8c0-19.2-12.8-32-25.6-32s-25.6 12.8-25.6 32v44.8c-6.4 76.8 51.2 140.8 128 140.8h582.4c76.8 0 134.4-64 134.4-140.8v-192c44.8-12.8 83.2-57.6 83.2-115.2s-38.4-102.4-89.6-115.2z m-19.2 172.8c-32 0-57.6-25.6-57.6-57.6s25.6-57.6 57.6-57.6 57.6 25.6 57.6 57.6c-6.4 32-32 57.6-57.6 57.6z" p-id="9200" fill="#dd5a58"></path></svg>